<svg width="84" height="148" viewBox="0 0 84 148" fill="none" xmlns="http://www.w3.org/2000/svg">
<circle cx="2.49589" cy="3.24345" r="3.24345" fill="white" fill-opacity="0.5"/>
<circle cx="2.49589" cy="23.3528" r="3.24345" fill="white" fill-opacity="0.5"/>
<circle cx="2.49589" cy="43.4622" r="3.24345" fill="white" fill-opacity="0.5"/>
<circle cx="2.49589" cy="63.5716" r="3.24345" fill="white" fill-opacity="0.5"/>
<circle cx="2.49589" cy="83.6809" r="3.24345" fill="white" fill-opacity="0.5"/>
<circle cx="2.49589" cy="103.79" r="3.24345" fill="white" fill-opacity="0.5"/>
<circle cx="2.49589" cy="123.9" r="3.24345" fill="white" fill-opacity="0.5"/>
<circle cx="2.49589" cy="144.009" r="3.24345" fill="white" fill-opacity="0.5"/>
<circle cx="20.6595" cy="3.24345" r="3.24345" fill="white" fill-opacity="0.5"/>
<circle cx="20.6595" cy="23.3528" r="3.24345" fill="white" fill-opacity="0.5"/>
<circle cx="20.6595" cy="43.4622" r="3.24345" fill="white" fill-opacity="0.5"/>
<circle cx="20.6595" cy="63.5716" r="3.24345" fill="white" fill-opacity="0.5"/>
<circle cx="20.6595" cy="83.6809" r="3.24345" fill="white" fill-opacity="0.5"/>
<circle cx="20.6595" cy="103.79" r="3.24345" fill="white" fill-opacity="0.5"/>
<circle cx="20.6595" cy="123.9" r="3.24345" fill="white" fill-opacity="0.5"/>
<circle cx="20.6595" cy="144.009" r="3.24345" fill="white" fill-opacity="0.5"/>
<circle cx="38.8225" cy="3.24345" r="3.24345" fill="white" fill-opacity="0.5"/>
<circle cx="38.8225" cy="23.3528" r="3.24345" fill="white" fill-opacity="0.5"/>
<circle cx="38.8225" cy="43.4622" r="3.24345" fill="white" fill-opacity="0.5"/>
<circle cx="38.8225" cy="63.5716" r="3.24345" fill="white" fill-opacity="0.5"/>
<circle cx="38.8225" cy="83.6809" r="3.24345" fill="white" fill-opacity="0.5"/>
<circle cx="38.8225" cy="103.79" r="3.24345" fill="white" fill-opacity="0.5"/>
<circle cx="38.8225" cy="123.9" r="3.24345" fill="white" fill-opacity="0.5"/>
<circle cx="38.8225" cy="144.009" r="3.24345" fill="white" fill-opacity="0.5"/>
<circle cx="56.9856" cy="3.24345" r="3.24345" fill="white" fill-opacity="0.5"/>
<circle cx="56.9856" cy="23.3528" r="3.24345" fill="white" fill-opacity="0.5"/>
<circle cx="56.9856" cy="43.4622" r="3.24345" fill="white" fill-opacity="0.5"/>
<circle cx="56.9856" cy="63.5716" r="3.24345" fill="white" fill-opacity="0.5"/>
<circle cx="56.9856" cy="83.6809" r="3.24345" fill="white" fill-opacity="0.5"/>
<circle cx="56.9856" cy="103.79" r="3.24345" fill="white" fill-opacity="0.5"/>
<circle cx="56.9856" cy="123.9" r="3.24345" fill="white" fill-opacity="0.5"/>
<circle cx="56.9856" cy="144.009" r="3.24345" fill="white" fill-opacity="0.5"/>
<circle cx="75.1492" cy="3.24345" r="3.24345" fill="white" fill-opacity="0.5"/>
<circle cx="75.1492" cy="23.3528" r="3.24345" fill="white" fill-opacity="0.5"/>
<circle cx="75.1492" cy="43.4622" r="3.24345" fill="white" fill-opacity="0.5"/>
<circle cx="75.1492" cy="63.5716" r="3.24345" fill="white" fill-opacity="0.5"/>
<circle cx="75.1492" cy="83.6809" r="3.24345" fill="white" fill-opacity="0.5"/>
<circle cx="75.1492" cy="103.79" r="3.24345" fill="white" fill-opacity="0.5"/>
<circle cx="75.1492" cy="123.9" r="3.24345" fill="white" fill-opacity="0.5"/>
<circle cx="75.1492" cy="144.009" r="3.24345" fill="white" fill-opacity="0.5"/>
</svg>
