<svg width="50" height="50" viewBox="0 0 50 50" fill="none" xmlns="http://www.w3.org/2000/svg">
<path d="M28.0154 19.7609C28.123 19.8891 28.1795 20.0276 28.1846 20.1763C28.1897 20.325 28.1333 20.4584 28.0154 20.5763L23.5769 25.0148L28.0307 29.4782C28.1384 29.5795 28.1897 29.7138 28.1846 29.8811C28.1795 30.0484 28.123 30.1859 28.0154 30.2936C27.8872 30.4218 27.7513 30.4834 27.6077 30.4782C27.4641 30.4731 27.3333 30.4116 27.2154 30.2936L22.4519 25.5205C22.375 25.4436 22.3183 25.3651 22.2817 25.285C22.2452 25.2048 22.2269 25.1148 22.2269 25.0148C22.2269 24.9212 22.2452 24.8327 22.2817 24.7494C22.3183 24.6661 22.375 24.5859 22.4519 24.509L27.2 19.7609C27.3179 19.643 27.4513 19.5882 27.6 19.5965C27.7487 19.6049 27.8872 19.6597 28.0154 19.7609Z" fill="#07172D"/>
<rect x="1" y="1" width="48" height="48" rx="24" stroke="#DDDDDD"/>
</svg>
