<svg width="50" height="50" viewBox="0 0 50 50" fill="none" xmlns="http://www.w3.org/2000/svg">
<path d="M21.9846 30.2391C21.877 30.1109 21.8205 29.9724 21.8154 29.8237C21.8103 29.675 21.8667 29.5416 21.9846 29.4237L26.4231 24.9852L21.9693 20.5218C21.8616 20.4205 21.8103 20.2862 21.8154 20.1189C21.8205 19.9516 21.877 19.8141 21.9846 19.7064C22.1128 19.5782 22.2487 19.5166 22.3923 19.5218C22.5359 19.5269 22.6667 19.5884 22.7846 19.7064L27.5481 24.4795C27.625 24.5564 27.6817 24.6349 27.7183 24.715C27.7548 24.7952 27.7731 24.8852 27.7731 24.9852C27.7731 25.0788 27.7548 25.1673 27.7183 25.2506C27.6817 25.3339 27.625 25.4141 27.5481 25.491L22.8 30.2391C22.6821 30.357 22.5487 30.4118 22.4 30.4035C22.2513 30.3951 22.1128 30.3403 21.9846 30.2391Z" fill="#07172D"/>
<rect x="1" y="1" width="48" height="48" rx="24" stroke="#DDDDDD"/>
</svg>
