<svg width="70" height="64" viewBox="0 0 70 64" fill="none" xmlns="http://www.w3.org/2000/svg">
<path d="M44.8638 19.4801L44.8626 19.4841C43.0411 25.9424 42.1348 33.5017 42.1348 42.1547V57.1779C42.1348 59.1021 42.6161 60.6371 43.6665 61.6875C44.7169 62.7379 46.2519 63.2193 48.1761 63.2193H62.4605C64.3847 63.2193 65.9197 62.7379 66.9701 61.6875C68.0205 60.6371 68.5018 59.1021 68.5018 57.1779V42.1547C68.5018 40.2305 68.0205 38.6955 66.9701 37.6451C65.9197 36.5947 64.3847 36.1134 62.4605 36.1134H56.56C56.6146 31.2649 57.4653 26.6482 59.1105 22.2603C60.8971 17.6322 63.1565 14.1384 65.8698 11.7443L65.8699 11.7444L65.8754 11.7394C66.8067 10.8927 67.4233 10.0445 67.5988 9.19213C67.7845 8.29002 67.4581 7.48524 66.7422 6.81708L61.2008 1.64515C60.4878 0.979676 59.6541 0.682259 58.7301 0.807123C57.8349 0.928099 56.9153 1.43726 55.9766 2.24798L55.9766 2.24792L55.9702 2.25362C50.4877 7.15463 46.7801 12.8979 44.8638 19.4801ZM4.22721 19.4801L4.22719 19.4801L4.22605 19.4841C2.40448 25.9424 1.49817 33.5017 1.49817 42.1547V57.1779C1.49817 59.1021 1.97956 60.6371 3.02995 61.6875C4.08035 62.7379 5.61533 63.2193 7.53952 63.2193H21.8239C23.7481 63.2193 25.2831 62.7379 26.3335 61.6875C27.3839 60.6371 27.8653 59.1021 27.8653 57.1779V42.1547C27.8653 40.2305 27.3839 38.6955 26.3335 37.6451C25.2831 36.5947 23.7481 36.1134 21.8239 36.1134H15.9234C15.978 31.2649 16.8287 26.6483 18.4738 22.2605C20.2605 17.6323 22.5199 14.1384 25.2332 11.7443L25.2333 11.7444L25.2388 11.7394C26.1701 10.8927 26.7867 10.0445 26.9622 9.19213C27.1479 8.29002 26.8215 7.48524 26.1056 6.81708L20.5642 1.64515C19.8512 0.979676 19.0175 0.682259 18.0935 0.807123C17.1983 0.928099 16.2788 1.43726 15.34 2.24798L15.34 2.24792L15.3336 2.25362C9.85112 7.15463 6.14353 12.8979 4.22721 19.4801Z" stroke="#5882FB"/>
</svg>
