<svg width="12" height="12" viewBox="0 0 12 12" fill="none" xmlns="http://www.w3.org/2000/svg">
<path d="M1.01811 12C0.741302 12 0.502413 11.8995 0.301448 11.6986C0.100482 11.4976 0 11.2587 0 10.9819V1.01811C0 0.741302 0.100482 0.502413 0.301448 0.301448C0.502413 0.100482 0.741302 0 1.01811 0H5.05927C5.28043 0 5.45972 0.179287 5.45972 0.400448C5.45972 0.62161 5.28043 0.800896 5.05927 0.800896H1.01811C0.963809 0.800896 0.914026 0.82352 0.868767 0.868767C0.82352 0.914026 0.800896 0.963809 0.800896 1.01811V10.9819C0.800896 11.0362 0.82352 11.086 0.868767 11.1312C0.914026 11.1765 0.963809 11.1991 1.01811 11.1991H10.9819C11.0362 11.1991 11.086 11.1765 11.1312 11.1312C11.1765 11.086 11.1991 11.0362 11.1991 10.9819V6.94073C11.1991 6.71957 11.3784 6.54028 11.5996 6.54028C11.8207 6.54028 12 6.71957 12 6.94073V10.9819C12 11.2587 11.8995 11.4976 11.6986 11.6986C11.4976 11.8995 11.2587 12 10.9819 12H1.01811ZM4.59911 7.97645C4.44061 8.13495 4.18326 8.13373 4.02628 7.97372C3.8714 7.81586 3.8726 7.5627 4.02898 7.40633L10.6344 0.800896H7.28554C7.06438 0.800896 6.88509 0.62161 6.88509 0.400448C6.88509 0.179287 7.06438 0 7.28554 0H12V4.71446C12 4.93562 11.8207 5.11491 11.5996 5.11491C11.3784 5.11491 11.1991 4.93562 11.1991 4.71446V1.37646L4.59911 7.97645Z" fill="white"/>
</svg>
